<svg
  width="100"
  height="100"
  viewBox="0 0 100 100"
  preserveAspectRatio="xMidYMin slice"
>
  <circle cx="50" cy="50" r="50" fill="#1f283d"></circle>
  <path
    d="M 50,50 L 50,0 A 50,50 0 0 1 99.10496891508744,40.581824600895544 Z"
    fill="#ff6476"
    transform="rotate(0 50 50)"
  ></path>
  <path
    d="M 50,50 L 50,0 A 50,50 0 0 1 59.31994669040305,0.8762929565770108 Z"
    fill="#1f283d"
    transform="rotate(79.2 50 50)"
  ></path>
  <path
    d="M 50,50 L 50,0 A 50,50 0 0 1 99.10496891508744,40.581824600895544 Z"
    fill="#ff6476"
    transform="rotate(90 50 50)"
  ></path>
  <path
    d="M 50,50 L 50,0 A 50,50 0 0 1 59.31994669040305,0.8762929565770108 Z"
    fill="#1f283d"
    transform="rotate(169.20000000000002 50 50)"
  ></path>
  <path
    d="M 50,50 L 50,0 A 50,50 0 0 1 99.10496891508744,40.581824600895544 Z"
    fill="#ff6476"
    transform="rotate(180 50 50)"
  ></path>
  <path
    d="M 50,50 L 50,0 A 50,50 0 0 1 59.31994669040305,0.8762929565770108 Z"
    fill="#1f283d"
    transform="rotate(259.2 50 50)"
  ></path>
  <path
    d="M 50,50 L 50,0 A 50,50 0 0 1 99.10496891508744,40.581824600895544 Z"
    fill="#ff6476"
    transform="rotate(270 50 50)"
  ></path>
  <path
    d="M 50,50 L 50,0 A 50,50 0 0 1 59.31994669040305,0.8762929565770108 Z"
    fill="#1f283d"
    transform="rotate(349.2 50 50)"
  ></path>
  <circle cx="50" cy="50" r="25" fill="#1f283d"></circle>
</svg>
