<svg
  xmlns="http://www.w3.org/2000/svg"
  id="sv"
  width="180"
  height="180"
  viewBox="0 0 180 180"
>
  <path
    id="0"
    fill="#ff6e81"
    d="M96.27808263697128, 0.21923547661582177 A90,90 0 0 1 179.7804905048875,83.71799994414154 L149.85366033659167,85.81199996276102 A60,60 0 0 0 94.18538842464751,30.146156984410545 Z"
  ></path>
  <path
    id="1"
    fill="#ff6e81"
    d="M179.78103837095097, 96.27416520613149 A90,90 0 0 1 96.28591746278563,179.78021631546142 L94.19061164185709,149.85347754364096 A60,60 0 0 0 149.85402558063396,94.18277680408765 Z"
  ></path>
  <path
    id="2"
    fill="#ff6e81"
    d="M83.7297522366534, 179.78131204758733 A90,90 0 0 1 0.22005804489350567,96.28983485774528 L30.146705363262335,94.19322323849686 A60,60 0 0 0 85.8198348244356,149.85420803172488 Z"
  ></path>
  <path
    id="3"
    fill="#ff6e81"
    d="M0.21841444670727128, 83.73366969137604 A90,90 0 0 1 83.70624775927008,0.22033257617675872 L85.80416517284672,30.146888384117844 A60,60 0 0 0 30.14560963113818,85.82244646091736 Z"
  ></path>
</svg>
